<svg xmlns="http://www.w3.org/2000/svg" width="42" height="76" viewBox="0 0 42 76" fill="none">
  <path d="M21.8481 70.824C21.8368 70.8207 21.8254 70.8179 21.8139 70.8154C21.5375 70.7569 21.2266 70.4853 21.089 70.133C20.9656 69.8169 21.0128 69.5413 21.2694 69.3444C23.8859 67.7674 26.9239 66.513 29.8583 65.5711C30.0362 65.514 30.1674 65.3625 30.1985 65.1783C30.2296 64.994 30.1554 64.8078 30.0061 64.6955C21.1398 58.025 12.1098 50.8035 5.56892 41.8661C4.26058 40.0606 2.75874 37.8713 1.73488 35.5467C0.710289 33.2205 0.190555 30.8171 0.767809 28.5597C1.82187 24.7724 5.28157 21.6292 9.23363 21.538C12.1406 21.5062 14.8633 22.224 17.6266 23.05C17.9768 23.1547 18.328 23.2612 18.6804 23.3682C21.0894 24.099 23.5532 24.8465 26.1444 25.1321C27.2969 25.2607 28.2163 25.1672 28.9058 24.8355C29.6216 24.4912 30.0404 23.9135 30.212 23.2055C30.3776 22.5221 30.311 21.7336 30.118 20.92C29.9234 20.1 29.5903 19.2132 29.1814 18.3133C27.9661 15.6388 25.9909 12.6729 24.7619 10.8276C24.3539 10.2149 24.0281 9.72579 23.8398 9.41187L23.8387 9.41015C22.6522 7.45053 22.1736 5.5275 22.5646 4.04369C22.9394 2.62115 24.1618 1.44182 26.7835 1.03264C29.7304 0.627633 32.4294 2.15302 34.7822 4.45792C37.128 6.75609 39.0449 9.7489 40.4092 12.0805C40.5507 12.3336 40.4633 12.5672 40.2875 12.6995C40.1984 12.7666 40.1102 12.7868 40.0471 12.7804C39.9972 12.7754 39.9207 12.751 39.8376 12.6306C39.8325 12.6232 39.8272 12.616 39.8218 12.6089C39.5698 12.2828 39.3165 11.9513 39.0607 11.6167C37.0708 9.01306 34.9371 6.22135 32.2147 4.29744C31.7722 3.98476 30.9333 3.63213 30.0001 3.35141C29.0535 3.06667 27.9445 2.83624 26.9353 2.79879C25.9613 2.76263 24.9307 2.8996 24.2976 3.51215C23.5989 4.18831 23.5722 5.22542 24.1181 6.5048C24.6509 7.78116 25.3425 9.04884 26.2642 10.2166C26.3367 10.315 26.409 10.4131 26.481 10.5108C29.3829 14.447 31.9041 17.8669 31.8011 22.855L31.801 22.8561C31.7815 23.9145 31.5509 24.6929 31.1887 25.2635C30.8291 25.8301 30.3174 26.2269 29.6719 26.4888C28.3525 27.0238 26.502 26.9831 24.4269 26.6199C22.3696 26.2598 20.1801 25.6001 18.2272 24.9802C17.9269 24.8849 17.6309 24.79 17.3411 24.6972C15.776 24.1956 14.3924 23.7523 13.4789 23.6023L13.4769 23.6019C11.021 23.2088 8.07163 23.4345 5.81655 24.5938C4.6822 25.1769 3.70772 26.0052 3.07609 27.125C2.44225 28.2487 2.17517 29.6282 2.39576 31.2722L2.3961 31.2747C3.13562 36.5853 6.87576 41.116 10.1935 44.8712C15.1918 50.5567 21.0071 55.3431 26.7963 60.1081C28.1536 61.2253 29.5095 62.3413 30.8531 63.4675C31.0096 63.5986 31.2301 63.6215 31.4101 63.5252C31.5902 63.4289 31.6936 63.2328 31.6714 63.0299C31.6067 62.4388 31.5546 61.8491 31.5027 61.2602C31.3724 59.7827 31.2427 58.311 30.9141 56.8396C30.8675 56.6311 30.91 56.4867 30.9808 56.3816C31.0583 56.2667 31.1944 56.1645 31.3781 56.1042C31.7647 55.9772 32.1776 56.082 32.38 56.3573C34.2561 59.0148 35.6578 61.9436 36.9827 64.9533C37.2805 65.6299 37.5748 66.3115 37.8699 66.995C38.8823 69.3398 39.9042 71.7063 41.1097 73.9659L41.1096 73.966L41.1156 73.9767C41.2488 74.2123 41.1946 74.463 40.9299 74.6908C40.6505 74.9311 40.2627 75.017 39.9903 74.9201C37.0108 73.737 33.9288 73.1361 30.8772 72.6191C30.3939 72.5373 29.9117 72.4575 29.4308 72.378C26.8585 71.9527 24.323 71.5335 21.8481 70.824ZM33.9643 62.5189C33.8604 62.3093 33.6251 62.1998 33.3979 62.2552C33.1706 62.3106 33.0122 62.5162 33.0164 62.7501C33.0301 63.5007 32.834 64.2026 32.4924 64.7818C32.4091 64.9229 32.4003 65.096 32.4689 65.2449C32.6073 65.5455 32.5619 65.8185 32.3629 65.9861C32.3543 65.9934 32.346 66.0009 32.3379 66.0087C31.4979 66.819 30.4566 67.3957 29.2918 67.8846C28.4952 68.219 27.6692 68.5018 26.82 68.7925C26.4141 68.9314 26.003 69.0722 25.5872 69.2213C25.3747 69.2975 25.2396 69.5066 25.2575 69.7316C25.2754 69.9566 25.4419 70.1417 25.6637 70.1834C26.905 70.4163 28.1207 70.6216 29.3213 70.8244C32.1018 71.294 34.801 71.7499 37.5468 72.5031C37.7342 72.5546 37.9345 72.4927 38.0603 72.3445C38.1861 72.1962 38.2145 71.9886 38.1333 71.812C37.5802 70.6097 37.0411 69.3646 36.4993 68.1133C35.6796 66.2202 34.8537 64.313 33.9643 62.5189Z" fill="#F9F9F9" stroke="#111111" stroke-linejoin="round"/>
</svg>