<svg width="135" height="133" viewBox="0 0 135 133" fill="none" xmlns="http://www.w3.org/2000/svg">
<path d="M29.6326 20.0757C29.6326 20.9041 28.9611 21.5757 28.1326 21.5757C27.3042 21.5757 26.6326 20.9041 26.6326 20.0757C26.6326 19.2473 27.3042 18.5757 28.1326 18.5757C28.9611 18.5757 29.6326 19.2473 29.6326 20.0757Z" fill="#EF3D3D"/>
<path d="M51.6326 17.0757C51.6326 17.9041 50.9611 18.5757 50.1326 18.5757C49.3042 18.5757 48.6326 17.9041 48.6326 17.0757C48.6326 16.2473 49.3042 15.5757 50.1326 15.5757C50.9611 15.5757 51.6326 16.2473 51.6326 17.0757Z" fill="#EF3D3D"/>
<path d="M38.1326 4.57568C33.466 4.07568 23.3326 6.97568 20.1326 22.5757C16.9048 38.3112 27.3516 40.6978 34.1326 41.0328M33.1326 1.0757C50.1326 0.0757021 60.1326 9.0757 60.1326 22.5757C60.1326 32.4805 50.9815 37.8098 44.1326 39.9458M34.1326 41.0328C35.7549 41.113 37.1674 41.0757 38.1326 41.0757C39.4642 41.0757 41.6467 40.7211 44.1326 39.9458M34.1326 41.0328C33.0172 43.5723 31.9326 48.1338 31.2307 53.5757M44.1326 39.9458C44.4716 44.2464 44.7531 48.888 44.9406 53.5757M44.9406 53.5757C55 77.5 65 84.5 70 83M44.9406 53.5757C45.5665 69.219 45.1462 85.3745 42.3232 91.0757M31.2307 53.5757C29.6256 66.0221 30.0227 83.0742 36.6326 91.0757M31.2307 53.5757C22.8647 46.409 6.23264 31.5757 6.63264 29.5757M36.6326 91.0757C33.4333 100.242 27.4541 120.976 29.1326 130.576C27.966 126.076 22.538 124 20.538 126.5C18.538 129 20.6326 131.176 26.6326 131.576M36.6326 91.0757C39.1501 94.1231 41.0004 93.747 42.3232 91.0757M6.63264 29.5757C7.13264 27.0757 7.13264 25.5757 7.63264 24.0757M6.63264 29.5757L1.63264 25.5757M6.63264 29.5757C4.29931 30.2423 -0.167364 31.6757 0.632636 32.0757M42.3232 91.0757C44.2596 90.409 48.4326 97.5757 49.6326 131.576C49.7993 128.742 51.5326 122.976 57.1326 122.576C59.0691 123.576 60.8802 126.576 52.6326 130.576M29.6326 20.0757C29.6326 20.9041 28.9611 21.5757 28.1326 21.5757C27.3042 21.5757 26.6326 20.9041 26.6326 20.0757C26.6326 19.2473 27.3042 18.5757 28.1326 18.5757C28.9611 18.5757 29.6326 19.2473 29.6326 20.0757ZM51.6326 17.0757C51.6326 17.9041 50.9611 18.5757 50.1326 18.5757C49.3042 18.5757 48.6326 17.9041 48.6326 17.0757C48.6326 16.2473 49.3042 15.5757 50.1326 15.5757C50.9611 15.5757 51.6326 16.2473 51.6326 17.0757Z" stroke="#EF3D3D" stroke-linecap="round" stroke-linejoin="round"/>
<path d="M95.1902 37.5922C95.1902 38.7666 94.4271 39.7187 93.4858 39.7187C92.5445 39.7187 91.7815 38.7666 91.7815 37.5922C91.7815 36.4177 92.5445 35.4656 93.4858 35.4656C94.4271 35.4656 95.1902 36.4177 95.1902 37.5922Z" fill="#EF3D3D"/>
<path d="M114.287 34.8096C114.058 35.9617 113.125 36.7479 112.201 36.5655C111.278 36.3832 110.715 35.3014 110.943 34.1493C111.171 32.9972 112.105 32.211 113.028 32.3933C113.952 32.5756 114.515 33.6574 114.287 34.8096Z" fill="#EF3D3D"/>
<path d="M87.0945 36.3164C92.8893 21.6858 104.422 21.9977 109.677 23.9825C110.647 22.7589 112.573 23.0754 114.641 23.9825M87.0945 36.3164C89.7931 33.3392 96.8943 28.0653 105.416 30.7872V26.5342C107.589 27.1013 112.477 27.385 114.641 23.9825M87.0945 36.3164C83.9946 49.9309 93.9753 54.541 102.434 54.5973M124.085 36.3164C124.282 34.0662 123.833 31.6449 122.46 29.0861C122.46 29.0861 118.324 25.5978 114.641 23.9825M124.085 36.3164C125.531 36.1746 128.766 36.5714 130.129 39.2934C131.493 42.0154 131.408 45.2477 133.538 47.3742C131.633 48.0831 125.442 47.8745 122.46 44.0467M124.085 36.3164C124.085 39.2934 124.085 41.8452 122.46 44.0467M122.46 44.0467C119.765 47.3012 115.345 50.354 112.319 52.0526M102.434 54.5973C105.601 54.6184 108.556 54.0008 110.529 52.9783C111.032 52.7465 111.641 52.4337 112.319 52.0526M102.434 54.5973C102.194 56.1522 101.931 57.873 101.653 59.7082M112.319 52.0526C112.33 54.9105 112.594 57.9153 113.044 60.9841M113.044 60.9841C116.348 83.4902 129.669 109.435 126.295 106.067C124.947 104.721 122.23 104.111 119.051 103.886M113.044 60.9841C117.461 72.0421 126.806 94.4983 128.851 95.8593M101.653 59.7082C99.2949 75.277 96.4685 98.8262 96.4685 99.6871C96.4685 101.257 97.3206 104.365 102.434 104.365C103.024 104.365 103.745 104.337 104.564 104.293M101.653 59.7082C98.0785 70.3408 75.1131 81.2988 70 83M104.564 104.293L104.138 129.033C102.008 128.183 97.8319 127.247 98.1728 130.309C98.5137 133.371 103.428 131.585 105.842 130.309M104.564 104.293C108.347 104.089 114.231 103.545 119.051 103.886M119.051 103.886C119.051 111.985 119.562 128.523 121.608 129.884C122.744 127.19 126.295 124.78 128.425 126.481C130.811 130.564 124.164 131.727 120.756 131.585M95.1902 37.5922C95.1902 38.7666 94.4271 39.7187 93.4858 39.7187C92.5445 39.7187 91.7815 38.7666 91.7815 37.5922C91.7815 36.4177 92.5445 35.4656 93.4858 35.4656C94.4271 35.4656 95.1902 36.4177 95.1902 37.5922ZM114.287 34.8096C114.058 35.9617 113.125 36.7479 112.201 36.5655C111.278 36.3832 110.715 35.3014 110.943 34.1493C111.171 32.9972 112.105 32.211 113.028 32.3933C113.952 32.5756 114.515 33.6574 114.287 34.8096Z" stroke="#EF3D3D" stroke-linecap="round" stroke-linejoin="round"/>
</svg>
