<svg xmlns="http://www.w3.org/2000/svg" width="83" height="100" viewBox="0 0 83 100" fill="none">
  <path d="M63.2995 18.6592C53.3316 13.5475 43.7045 23.8775 40.1369 29.6815C41.0953 25.1554 35.9836 16.176 27.9965 16.9021C16.7506 17.9244 15.856 29.6815 17.7729 38.1478C21.7665 48.3181 30.9996 68.2752 35.9836 66.7417C40.9676 65.2082 53.289 52.2584 58.8268 45.9752C64.471 38.9998 73.2675 23.771 63.2995 18.6592Z" stroke="#F9F9F9"/>
  <path d="M60.1047 1.08759H22.8847C12.182 1.08759 6.2715 6.35908 3.23638 13.5475C3.23638 13.5475 0.999997 19.2982 1 28.5633C1 37.8283 3.23638 64.8248 3.23638 64.8248C3.23638 71.7062 6.91047 78.4029 15.6963 78.4029H26.5588C37.9005 78.4029 36.942 96.2941 36.942 96.2941C36.942 99.0097 37.8667 100.157 41.0953 96.2941C50.0409 85.5913 43.0123 78.4029 51.1591 78.4029H69.0503C75.9317 78.4029 81.5102 70.1088 81.5102 63.2274V16.9021C81.5102 7.47728 81.5102 1.08759 60.1047 1.08759Z" stroke="#EF3D3D"/>
</svg>