<svg width="18" height="23" viewBox="0 0 16 21" fill="none" xmlns="http://www.w3.org/2000/svg">
<mask id="path-1-inside-1_41_2" fill="white">
<path d="M1.31588 1.3125C1.31588 0.586523 1.9024 0 2.62838 0L13.1284 0C13.8544 0 14.4409 0.586523 14.4409 1.3125C14.4409 2.03848 13.8544 2.625 13.1284 2.625H11.9184L12.386 8.70352C13.8913 9.51973 15.0807 10.8855 15.6467 12.5877L15.6877 12.7107C15.8231 13.1127 15.7534 13.5516 15.5073 13.892C15.2612 14.2324 14.8633 14.4375 14.4409 14.4375H1.31588C0.89342 14.4375 0.49967 14.2365 0.249475 13.892C-0.000720489 13.5475 -0.0663455 13.1086 0.069006 12.7107L0.110022 12.5877C0.676037 10.8855 1.86549 9.51973 3.37076 8.70352L3.83834 2.625H2.62838C1.9024 2.625 1.31588 2.03848 1.31588 1.3125ZM6.56588 15.75H9.19088V19.6875C9.19088 20.4135 8.60435 21 7.87838 21C7.1524 21 6.56588 20.4135 6.56588 19.6875L6.56588 15.75Z"/>
</mask>
<path d="M1.31588 1.3125C1.31588 0.586523 1.9024 0 2.62838 0L13.1284 0C13.8544 0 14.4409 0.586523 14.4409 1.3125C14.4409 2.03848 13.8544 2.625 13.1284 2.625H11.9184L12.386 8.70352C13.8913 9.51973 15.0807 10.8855 15.6467 12.5877L15.6877 12.7107C15.8231 13.1127 15.7534 13.5516 15.5073 13.892C15.2612 14.2324 14.8633 14.4375 14.4409 14.4375H1.31588C0.89342 14.4375 0.49967 14.2365 0.249475 13.892C-0.000720489 13.5475 -0.0663455 13.1086 0.069006 12.7107L0.110022 12.5877C0.676037 10.8855 1.86549 9.51973 3.37076 8.70352L3.83834 2.625H2.62838C1.9024 2.625 1.31588 2.03848 1.31588 1.3125ZM6.56588 15.75H9.19088V19.6875C9.19088 20.4135 8.60435 21 7.87838 21C7.1524 21 6.56588 20.4135 6.56588 19.6875L6.56588 15.75Z" stroke="#EF3D3D" stroke-width="2" mask="url(#path-1-inside-1_41_2)"/>
</svg>
